# xmcd
#
# Track frame offsets: 
#        150
#        15992
#        31437
#        47003
#        65107
#        81178
#        96333
#        114119
#        126643
#        142963
#        159609
#        171825
#        186098
#        200080
#        214896
#        229704
#        245056
#        256596
#        278979
#        296157
#
# Disc length: 4167 seconds
#
# Revision: 0
# Processed by: cddbd v1.5.2PL0 Copyright (c) Steve Scherf et al.
# Submitted via: ExactAudioCopyFreeDBPlugin 1.0
#
DISCID=2c104514
DTITLE=Various Artist - Hot and New Country Music 04
DYEAR=2012
DGENRE=Country
TTITLE0=Kenny Chesney - Reality
TTITLE1=Carrie Underwood - Good Girl
TTITLE2=Rodney Atkins - Take A Back Road
TTITLE3=Kevin Chase - Lonesome, Ornery And Mean
TTITLE4=Zac Brown Band - Keep Me In Mind
TTITLE5=Jason Aldean - Tattoos On This Town
TTITLE6=Dierks Bentley - Home
TTITLE7=Jake Owen - Barefoot Blue Jean Night
TTITLE8=Kelly Clarkson - Mr. Know It All
TTITLE9=Down Town Mystic - Believe
TTITLE10=Chris Young - You
TTITLE11=Eric Church - Drink In My Hand
TTITLE12=Love And Theft - Angel Eyes
TTITLE13=Miranda Lambert - Baggage Claim
TTITLE14=Eli Young Band - Crazy Girl
TTITLE15=Casey James - Let's Don't Call It A Night
TTITLE16=Scooter Lee - Bet On A New America
TTITLE17=David Nail - Let It Rain
TTITLE18=Blake Shelton - God Gave Me You
TTITLE19=Luke Bryan - I Don't Want This NIght To End
EXTD=
EXTT0=
EXTT1=
EXTT2=
EXTT3=
EXTT4=
EXTT5=
EXTT6=
EXTT7=
EXTT8=
EXTT9=
EXTT10=
EXTT11=
EXTT12=
EXTT13=
EXTT14=
EXTT15=
EXTT16=
EXTT17=
EXTT18=
EXTT19=
PLAYORDER=
